<svg width="28" height="28" viewBox="0 0 28 28" fill="currentColor" xmlns="http://www.w3.org/2000/svg">
<g id="vmoji_outline_28">
<g id="&#226;&#134;&#179; Icon Color">
<path d="M12 3C12 3.55228 11.5523 4 11 4C7.13401 4 4 7.13401 4 11C4 11.5523 3.55228 12 3 12C2.44771 12 2 11.5523 2 11C2 6.02944 6.02944 2 11 2C11.5523 2 12 2.44771 12 3Z" fill="currentColor"/>
<path d="M12 25C12 24.4477 11.5523 24 11 24C7.13401 24 4 20.866 4 17C4 16.4477 3.55228 16 3 16C2.44772 16 2 16.4477 2 17C2 21.9706 6.02944 26 11 26C11.5523 26 12 25.5523 12 25Z" fill="currentColor"/>
<path d="M16 3C16 3.55228 16.4477 4 17 4C20.866 4 24 7.13401 24 11C24 11.5523 24.4477 12 25 12C25.5523 12 26 11.5523 26 11C26 6.02944 21.9706 2 17 2C16.4477 2 16 2.44771 16 3Z" fill="currentColor"/>
<path d="M16 25C16 24.4477 16.4477 24 17 24C20.866 24 24 20.866 24 17C24 16.4477 24.4477 16 25 16C25.5523 16 26 16.4477 26 17C26 21.9706 21.9706 26 17 26C16.4477 26 16 25.5523 16 25Z" fill="currentColor"/>
</g>
<path id="Vector" d="M18.9961 9.99951C18.7299 9.99951 18.4746 10.105 18.2861 10.2928V10.2918L11.9961 16.5878L9.20305 13.7948C9.11014 13.702 8.99985 13.6283 8.87849 13.5781C8.75712 13.5279 8.62705 13.5021 8.4957 13.5021C8.23043 13.5022 7.97606 13.6077 7.78855 13.7953C7.60104 13.983 7.49576 14.2374 7.49585 14.5027C7.4959 14.634 7.52181 14.7641 7.57212 14.8854C7.62243 15.0067 7.69614 15.117 7.78905 15.2098L11.2891 18.7098C11.4766 18.8973 11.7309 19.0026 11.9961 19.0026C12.2612 19.0026 12.5155 18.8973 12.7031 18.7098L19.7061 11.7128C20.0961 11.3218 20.0961 10.6828 19.7061 10.2928C19.5175 10.105 19.2622 9.99951 18.9961 9.99951Z" fill="currentColor"/>
</g>
</svg>
