<svg width="111" height="50" viewBox="0 0 111 50" fill="none" xmlns="http://www.w3.org/2000/svg">
<g id="svgviewer-output (9) 1" clip-path="url(#clip0_3_17553)">
<g id="Group 425">
<path id="Vector" d="M64.9167 49.6538H46.9846C35.8795 49.6538 30.3269 49.6539 26.959 46.1949C23.5 42.7359 23.5 37.1833 23.5 26.1692V24.0756C23.5 12.9705 23.5 7.41795 26.8679 3.95897C30.3269 0.5 35.9705 0.5 46.9846 0.5H64.9167C76.0218 0.5 81.6654 0.5 85.1244 3.95897C88.5833 7.41795 88.5833 12.9705 88.5833 23.9846V26.0782C88.5833 37.1833 88.5833 42.7359 85.1244 46.1949C81.5744 49.6539 76.0218 49.6538 65.0987 49.6538H64.9167Z" fill="#5FEDFF"/>
<g id="Mask group">
<mask id="mask0_3_17553" style="mask-type:alpha" maskUnits="userSpaceOnUse" x="23" y="0" width="66" height="50">
<path id="Vector_2" d="M64.9167 49.6538H46.9846C35.8795 49.6538 30.3269 49.6539 26.959 46.1949C23.5 42.7359 23.5 37.1833 23.5 26.1692V24.0756C23.5 12.9705 23.5 7.41795 26.8679 3.95897C30.3269 0.5 35.9705 0.5 46.9846 0.5H64.9167C76.0218 0.5 81.6654 0.5 85.1244 3.95897C88.5833 7.41795 88.5833 12.9705 88.5833 23.9846V26.0782C88.5833 37.1833 88.5833 42.7359 85.1244 46.1949C81.5744 49.6539 76.0218 49.6538 65.0987 49.6538H64.9167Z" fill="#5FEDFF"/>
</mask>
<g mask="url(#mask0_3_17553)">
<g id="Group 424">
<g id="Vector_3">
<path d="M33.9397 23.5896C34.3891 35.4958 30.9436 47.5356 28.8838 51.9241C67.9824 74.3627 70.0797 62.9908 66.241 54.5C64.4433 49.0048 63.9939 41.5253 63.9939 38.4724L33.9397 23.5896Z" fill="#FFA38A"/>
<path d="M27.7603 15.1223C16.0757 16.0382 14.4653 7.49014 15.1207 3.10164C15.3771 1.3844 18.2104 -1.30595 26.075 -1.76388C35.9059 -2.33629 44.6132 -27.8087 46.0176 -27.8087C76.9145 -33.5328 84.7791 -2.33629 83.9365 15.1223C83.0938 32.5809 71.8586 40.8809 53.8822 39.1637C39.5011 37.7899 30.4755 22.5637 27.7603 15.1223Z" fill="#FFA38A"/>
</g>
<path id="Vector 21 (Stroke)" fill-rule="evenodd" clip-rule="evenodd" d="M59.6672 -3.35325C60.2876 -3.6706 61.065 -3.45621 61.4034 -2.87441C61.8076 -2.17959 62.5248 -1.06501 63.3401 -0.0170457C64.1897 1.07505 65.0197 1.92735 65.6307 2.27113C66.0895 2.52921 66.4987 2.87522 66.7516 3.33914C67.0152 3.82248 67.0527 4.33131 66.9404 4.79709C66.7369 5.64147 66.0568 6.31199 65.4638 6.76795C64.8252 7.25898 64.054 7.67813 63.3257 7.9769C62.6303 8.26219 61.8238 8.5 61.1331 8.5C60.4264 8.5 59.8534 7.96275 59.8534 7.30002C59.8534 6.63729 60.4264 6.10005 61.1331 6.10005C61.2956 6.10005 61.7155 6.01786 62.2998 5.77816C62.8513 5.55195 63.4131 5.2411 63.8409 4.91215C64.0537 4.74854 64.2114 4.59722 64.3163 4.46882C64.3457 4.43288 64.369 4.40101 64.3874 4.37343C64.367 4.3601 64.3427 4.34525 64.3139 4.32907C63.2186 3.71286 62.129 2.49854 61.2723 1.39734C60.3813 0.252018 59.6055 -0.953361 59.1565 -1.72518C58.8181 -2.30699 59.0467 -3.0359 59.6672 -3.35325Z" fill="#F07877"/>
<path id="Vector 21" d="M33.396 35.8239C33.943 32.4645 34.1084 30.4559 34.2078 26.7002C39.1866 34.4162 48.0078 38.0831 51.796 38.952C43.1372 39.1605 35.6509 37.1273 33.396 35.8239Z" fill="#EE7876"/>
<path id="Vector 22" d="M60.5336 13.1523C51.3001 12.2599 50.5306 13.9455 50.4344 14.9371C48.7031 18.8041 60.4856 27.7162 67.1702 21.4813C73.2298 15.8295 69.7672 14.0447 60.5336 13.1523Z" fill="#121E48"/>
<path id="Ellipse 1" d="M69.8521 15.2807C69.7418 16.8351 65.251 17.8077 59.8216 17.4532C54.3922 17.0986 50.0802 15.5511 50.1905 13.9967C50.3007 12.4423 54.7915 11.4697 60.2209 11.8243C65.6503 12.1788 69.9623 13.7263 69.8521 15.2807Z" fill="white"/>
<path id="Vector 20" d="M65.1884 32.8333C60.5773 32.8333 54.8742 24.3495 54.8742 21.3391C54.5916 18.5345 59.575 18.5803 62.7106 19.9274C63.1424 20.1129 63.6343 20.1778 64.1066 20.11C73.2538 18.7957 70.8059 32.8333 65.1884 32.8333Z" fill="#FF0080"/>
</g>
</g>
</g>
</g>
<path id="Vector_4" d="M124.724 28.1718C125.328 28.1718 125.907 27.932 126.333 27.5052C126.76 27.0785 127 26.4997 127 25.8961V24.2577C127.022 23.8051 126.902 23.357 126.658 22.9753C126.414 22.5936 126.058 22.2973 125.638 22.1273C125.218 21.9573 124.755 21.9221 124.314 22.0265C123.873 22.131 123.476 22.3699 123.177 22.7102C122.722 23.0743 122.54 23.6205 122.54 24.2577V25.8961C122.527 26.1906 122.575 26.4845 122.679 26.7601C122.783 27.0358 122.942 27.2875 123.147 27.5001C123.351 27.7127 123.596 27.8818 123.867 27.9972C124.138 28.1126 124.43 28.172 124.724 28.1718ZM105.882 39.1859C106.47 39.1623 107.025 38.9122 107.433 38.488C107.84 38.0638 108.067 37.4983 108.067 36.9102V13.2436C108.067 12.6521 107.832 12.0848 107.413 11.6666C106.995 11.2484 106.428 11.0134 105.837 11.0134C105.245 11.0134 104.678 11.2484 104.26 11.6666C103.841 12.0848 103.606 12.6521 103.606 13.2436V36.9102C103.594 37.2125 103.644 37.5142 103.753 37.7961C103.863 38.078 104.03 38.334 104.244 38.548C104.458 38.7619 104.714 38.9291 104.996 39.0389C105.278 39.1487 105.58 39.1987 105.882 39.1859ZM115.349 32.8141C115.921 32.7916 116.464 32.5542 116.869 32.1493C117.274 31.7444 117.511 31.2017 117.533 30.6295V19.6154C117.533 19.0118 117.294 18.433 116.867 18.0062C116.44 17.5795 115.861 17.3397 115.258 17.3397C114.654 17.3397 114.075 17.5795 113.649 18.0062C113.222 18.433 112.982 19.0118 112.982 19.6154V30.5384C112.982 30.8451 113.044 31.1486 113.164 31.4308C113.284 31.713 113.459 31.9681 113.68 32.1806C113.902 32.3932 114.163 32.5588 114.45 32.6677C114.737 32.7765 115.042 32.8263 115.349 32.8141ZM96.4154 35.6359C97.5987 35.6359 98.6 34.2705 98.6 32.632V17.5218C98.6 15.8833 97.6898 14.5179 96.4154 14.5179C95.1411 14.5179 94.1398 15.8833 94.1398 17.5218V32.632C94.1398 34.2705 95.1411 35.6359 96.4154 35.6359Z" fill="#00DC7F"/>
<g id="Vector_5">
<path d="M-14.3335 27.5049C-13.9067 27.9317 -13.3279 28.1714 -12.7244 28.1714C-12.1208 28.1714 -11.542 27.9317 -11.1152 27.5049C-10.6885 27.0781 -10.4487 26.4993 -10.4487 25.8958V24.2573C-10.4487 23.6538 -10.6885 23.075 -11.1152 22.6482C-11.542 22.2214 -12.1208 21.9817 -12.7244 21.9817C-13.3279 21.9817 -13.9067 22.2214 -14.3335 22.6482C-14.7602 23.075 -15 23.6538 -15 24.2573V25.8958C-15 26.4993 -14.7602 27.0781 -14.3335 27.5049Z" fill="#00DC7F"/>
<path d="M4.56736 38.4876C4.97463 38.9119 5.53033 39.162 6.11795 39.1855C6.72149 39.1855 7.30031 38.9458 7.72707 38.519C8.15384 38.0922 8.39359 37.5134 8.39359 36.9099V13.2432C8.28913 12.7288 8.01004 12.2663 7.60361 11.9341C7.19717 11.6019 6.68839 11.4204 6.16346 11.4204C5.63854 11.4204 5.12976 11.6019 4.72332 11.9341C4.31688 12.2663 4.03779 12.7288 3.93333 13.2432V36.9099C3.93286 37.498 4.16008 38.0634 4.56736 38.4876Z" fill="#00DC7F"/>
<path d="M-4.86857 32.149C-4.46364 32.5539 -3.92093 32.7913 -3.34872 32.8137C-2.74518 32.8137 -2.16636 32.574 -1.7396 32.1472C-1.31283 31.7204 -1.07308 31.1416 -1.07308 30.5381V19.615C-1.00596 19.2845 -1.01315 18.9432 -1.09412 18.6158C-1.17509 18.2884 -1.32781 17.9831 -1.54124 17.722C-1.75467 17.4609 -2.02347 17.2505 -2.32819 17.106C-2.63292 16.9615 -2.96595 16.8865 -3.3032 16.8865C-3.64045 16.8865 -3.97349 16.9615 -4.27822 17.106C-4.58294 17.2505 -4.85174 17.4609 -5.06517 17.722C-5.2786 17.9831 -5.43132 18.2884 -5.51229 18.6158C-5.59326 18.9432 -5.60044 19.2845 -5.53333 19.615V30.6291C-5.51087 31.2013 -5.27349 31.744 -4.86857 32.149Z" fill="#00DC7F"/>
<path d="M13.4 32.6317C13.4 34.2701 14.4013 35.6355 15.5846 35.6355C16.859 35.6355 17.8603 34.2701 17.8603 32.6317V17.5214C17.8603 15.8829 16.859 14.5176 15.5846 14.5176C14.3103 14.5176 13.4 15.8829 13.4 17.5214V32.6317Z" fill="#00DC7F"/>
</g>
</g>
<defs>
<clipPath id="clip0_3_17553">
<rect width="142" height="49.1538" fill="white" transform="translate(-15 0.5)"/>
</clipPath>
</defs>
</svg>
